<svg id="Layer_1" data-name="Layer 1" xmlns="http://www.w3.org/2000/svg" viewBox="0 0 224.1 224"><defs><style>.cls-1{fill:none;stroke:#000;stroke-miterlimit:10;stroke-width:9px;}</style></defs><title>BCH</title><path d="M134.59,122.51a42.14,42.14,0,0,0-14.5-3.35c-6.59-.41-14.91,0-14.91,0v28.4s8.82.2,14.6-.2,12-1.93,14.91-3.55,6.69-4.26,6.69-10.75S137,123.73,134.59,122.51ZM116.13,106a32.83,32.83,0,0,0,13.69-3.35c3.75-2,5.78-5.27,5.68-10s-3.35-8.92-8.82-10.55a41.72,41.72,0,0,0-13.18-1.83,78.41,78.41,0,0,0-8.32.3v25.56C105.08,106,111.26,106.18,116.13,106Z" transform="translate(-1.8 -2.5)"/><path class="cls-1" d="M113.85,7A107.5,107.5,0,1,0,221.4,114.55,107.52,107.52,0,0,0,113.85,7ZM157.6,155.66c-8,5.6-16.59,6.61-20.35,7-1.83.2-5.09.51-8.45.71V185H115.58V163.8H105.51V185H92.28V163.8H66l2.75-16h7.94c2.65,0,3.76-.2,4.88-1.32a5.25,5.25,0,0,0,1.32-4V87.59c0-3.46-.31-4.38-1.83-6.11s-5.29-2-7.43-2H66V65.71H92.18V44.44H105.4V65.71h10.07V44.44h13.23V66c9.87.61,17.3,2.54,23.71,7.22,8.34,6.11,7.83,16.79,7.73,19.33s-1.32,7.43-3.56,10.58-7.73,6.31-7.73,6.31,6.41,1.32,11,4.78,7.83,9.46,7.73,18.21S165.64,150.06,157.6,155.66Z" transform="translate(-1.8 -2.5)"/></svg>